<svg xmlns="http://www.w3.org/2000/svg" xmlns:xlink="http://www.w3.org/1999/xlink" viewBox="0 0 212.13 200"><defs><linearGradient id="ce300f05-62c3-4e58-a755-88967ea78373" x1="36.41" y1="54.88" x2="126.84" y2="54.88" gradientUnits="userSpaceOnUse"><stop offset="0" stop-color="#ee2c7b"/><stop offset="1" stop-color="#ed7653"/></linearGradient><linearGradient id="a892f16b-14cc-4fc3-bb0d-b71d9fe2a412" x1="158.69" y1="151.23" x2="86.19" y2="151.23" gradientUnits="userSpaceOnUse"><stop offset="0" stop-color="#aeb958"/><stop offset="1" stop-color="#4ead9b"/></linearGradient><linearGradient id="54658d7d-636e-47b0-bf03-5ce1f7274e28" x1="107.94" y1="76.86" x2="146.8" y2="37.99" gradientUnits="userSpaceOnUse"><stop offset="0" stop-color="#ed7454"/><stop offset="1" stop-color="#eec226"/></linearGradient><linearGradient id="1a6ab25a-9ead-440d-8361-c0d8320dcbcc" x1="137.75" y1="61.39" x2="137.75" y2="150.4" gradientUnits="userSpaceOnUse"><stop offset="0" stop-color="#eec226"/><stop offset="1" stop-color="#8eb56f"/></linearGradient><linearGradient id="e2e8fc37-168b-4395-9503-73aba726e126" x1="97.95" y1="174.54" x2="45.73" y2="102.4" gradientUnits="userSpaceOnUse"><stop offset="0" stop-color="#69b088"/><stop offset="1" stop-color="#00a2d4"/></linearGradient><linearGradient id="715e84d1-b424-4310-9819-6feb701981b1" x1="55.71" y1="125.25" x2="51.03" y2="58.22" gradientUnits="userSpaceOnUse"><stop offset="0" stop-color="#00a2d4"/><stop offset="1" stop-color="#ee2c7b"/></linearGradient><linearGradient id="f7ba78a5-6e0d-4893-b5df-1ad03b03673e" x1="36.41" y1="54.88" x2="126.84" y2="54.88" gradientUnits="userSpaceOnUse"><stop offset="0" stop-color="#fff" stop-opacity="0"/><stop offset="1" stop-color="#231f20"/></linearGradient><linearGradient id="3806628d-114b-4162-8e22-8daa7c93f82f" x1="158.69" y1="151.23" x2="86.19" y2="151.23" xlink:href="#f7ba78a5-6e0d-4893-b5df-1ad03b03673e"/><linearGradient id="77d2aa82-3736-486b-be15-97f48850940c" x1="107.94" y1="76.86" x2="146.8" y2="37.99" xlink:href="#f7ba78a5-6e0d-4893-b5df-1ad03b03673e"/><linearGradient id="6c703a4c-ffa6-4d6d-b4e3-ead00d75ee6f" x1="137.75" y1="61.39" x2="137.75" y2="150.4" xlink:href="#f7ba78a5-6e0d-4893-b5df-1ad03b03673e"/><linearGradient id="f8e927d5-2ae9-4cc1-9715-1f380b74b1f9" x1="97.95" y1="174.54" x2="45.73" y2="102.4" xlink:href="#f7ba78a5-6e0d-4893-b5df-1ad03b03673e"/><linearGradient id="149f69b5-9c01-45d3-8b84-0c4c62b986ee" x1="55.71" y1="125.25" x2="51.03" y2="58.22" xlink:href="#f7ba78a5-6e0d-4893-b5df-1ad03b03673e"/></defs><title>datasweet-icon</title><g style="isolation:isolate"><g id="bbdfbec3-0fd3-46d2-9a20-713886637d3f" data-name="Calque 1"><path d="M83.19,73.67l.11-.1-.11.1Z" style="fill:#f9ed32"/><path d="M85.3,126l-.31-.1.32.11Z" style="fill:#f9ed32"/><path d="M112.42,26.22l-2.76-1.6a14.9,14.9,0,0,0-14.9,0L40.19,56.13a14.89,14.89,0,0,0-3.78,3.12l90.44,27.88Z" style="fill:url(#ce300f05-62c3-4e58-a755-88967ea78373)"/><path d="M96.76,175.4a14.9,14.9,0,0,0,12.11-.54L157.8,150.4,85.31,126Z" style="fill:url(#a892f16b-14cc-4fc3-bb0d-b71d9fe2a412)"/><path d="M164.22,56.13l-51.8-29.91s16,67.28,17.1,72.22l40-37.05A14.89,14.89,0,0,0,164.22,56.13Z" style="fill:url(#54658d7d-636e-47b0-bf03-5ce1f7274e28)"/><path d="M171.54,67.05a14.89,14.89,0,0,0-2-5.66L95.87,129.58c-4.73-1.47,61.93,20.82,61.93,20.82l13.82-6.91a14.9,14.9,0,0,0,8.1-15.31Z" style="fill:url(#1a6ab25a-9ead-440d-8361-c0d8320dcbcc)"/><path d="M74.93,81.3c3.68-3.4-50.14,46.12-50.14,46.12l-.1.77a14.9,14.9,0,0,0,8.1,15.31l62.76,31.38c.4.2.81.37,1.22.54Z" style="fill:url(#e2e8fc37-168b-4395-9503-73aba726e126)"/><path d="M36.41,59.25a14.89,14.89,0,0,0-3.54,7.81l-8.09,60.37L83.19,73.67Z" style="fill:url(#715e84d1-b424-4310-9819-6feb701981b1)"/><g style="opacity:0.15;mix-blend-mode:multiply"><path d="M112.42,26.22l-2.76-1.6a14.9,14.9,0,0,0-14.9,0L40.19,56.13a14.89,14.89,0,0,0-3.78,3.12l90.44,27.88Z" style="stroke:#231f20;stroke-miterlimit:10;stroke-width:3px;fill:url(#f7ba78a5-6e0d-4893-b5df-1ad03b03673e)"/><path d="M96.76,175.4a14.9,14.9,0,0,0,12.11-.54L157.8,150.4,85.31,126Z" style="stroke:#231f20;stroke-miterlimit:10;stroke-width:3px;fill:url(#3806628d-114b-4162-8e22-8daa7c93f82f)"/><path d="M164.22,56.13l-51.8-29.91s16,67.28,17.1,72.22l40-37.05A14.89,14.89,0,0,0,164.22,56.13Z" style="stroke:#231f20;stroke-miterlimit:10;stroke-width:3px;fill:url(#77d2aa82-3736-486b-be15-97f48850940c)"/><path d="M171.54,67.05a14.89,14.89,0,0,0-2-5.66L95.87,129.58c-4.73-1.47,61.93,20.82,61.93,20.82l13.82-6.91a14.9,14.9,0,0,0,8.1-15.31Z" style="stroke:#231f20;stroke-miterlimit:10;stroke-width:3px;fill:url(#6c703a4c-ffa6-4d6d-b4e3-ead00d75ee6f)"/><path d="M74.93,81.3c3.68-3.4-50.14,46.12-50.14,46.12l-.1.77a14.9,14.9,0,0,0,8.1,15.31l62.76,31.38c.4.2.81.37,1.22.54Z" style="stroke:#231f20;stroke-miterlimit:10;stroke-width:3px;fill:url(#f8e927d5-2ae9-4cc1-9715-1f380b74b1f9)"/><path d="M36.41,59.25a14.89,14.89,0,0,0-3.54,7.81l-8.09,60.37L83.19,73.67Z" style="stroke:#231f20;stroke-miterlimit:10;stroke-width:3px;fill:url(#149f69b5-9c01-45d3-8b84-0c4c62b986ee)"/></g></g></g></svg>